<svg width="170" height="56" viewBox="0 0 170 56" fill="none" xmlns="http://www.w3.org/2000/svg">
<g clip-path="url(#clip0_240_381)">
<path d="M54.2763 22.7406V33.2618C54.2763 33.4324 54.2085 33.5959 54.0879 33.7165C53.9673 33.8371 53.8038 33.9048 53.6332 33.9048H50.312C50.1415 33.9048 49.9779 33.837 49.8574 33.7164C49.7368 33.5958 49.669 33.4323 49.6689 33.2618V16.1485C49.6689 15.978 49.7367 15.8144 49.8573 15.6938C49.9779 15.5732 50.1414 15.5055 50.312 15.5055H53.3854C53.556 15.5055 53.7195 15.5732 53.8401 15.6938C53.9607 15.8144 54.0285 15.978 54.0285 16.1485V18.5585C54.0285 18.5585 55.1272 15.1207 58.3877 15.1207C58.3877 15.1207 61.6129 14.7309 62.9242 18.3104C62.9242 18.3104 64.0229 15.1207 67.3544 15.1207C67.3544 15.1207 72.3087 14.8261 72.3087 19.9526L72.3464 22.776V33.2972C72.3464 33.4678 72.2787 33.6313 72.1581 33.7519C72.0375 33.8725 71.874 33.9403 71.7034 33.9403H68.3819C68.2113 33.9402 68.0478 33.8724 67.9272 33.7519C67.8067 33.6313 67.7389 33.4678 67.7388 33.2972L67.7085 21.8191C67.8029 19.22 65.7002 19.4091 65.7002 19.4091C63.0541 19.4565 63.3087 22.776 63.3087 22.776V33.2972C63.3087 33.4678 63.2409 33.6313 63.1203 33.7519C62.9997 33.8725 62.8362 33.9403 62.6656 33.9403H59.3444C59.1738 33.9402 59.0103 33.8724 58.8897 33.7519C58.7692 33.6313 58.7014 33.4678 58.7013 33.2972V22.0788C58.7013 22.0788 58.8955 19.3853 56.5326 19.3853C56.5329 19.3853 54.1938 19.0782 54.2763 22.7406ZM139.889 22.7091V33.23C139.889 33.4006 139.821 33.5641 139.701 33.6847C139.58 33.8052 139.417 33.873 139.246 33.8731L135.792 33.94C135.622 33.9399 135.458 33.8722 135.337 33.7516C135.217 33.631 135.149 33.4675 135.149 33.297V22.0788C135.149 22.0788 135.343 19.3853 132.981 19.3853C132.981 19.3853 130.724 19.2742 130.724 23.4973V33.2615C130.724 33.432 130.656 33.5956 130.536 33.7161C130.415 33.8367 130.251 33.9045 130.081 33.9046H126.759C126.589 33.9045 126.425 33.8367 126.305 33.7161C126.184 33.5956 126.116 33.432 126.116 33.2615V16.1485C126.116 15.978 126.184 15.8145 126.305 15.6939C126.425 15.5733 126.589 15.5056 126.759 15.5055H129.833C130.003 15.5055 130.167 15.5732 130.288 15.6938C130.408 15.8144 130.476 15.978 130.476 16.1485V18.5585C130.476 18.5585 131.575 15.1207 134.835 15.1207C134.835 15.1207 138.328 14.5908 139.504 18.2438C139.505 18.2435 139.889 18.9971 139.889 22.7091ZM115.908 15.0499C111.661 15.0499 108.218 18.6294 108.218 24.6544C108.218 29.959 110.876 34.259 115.908 34.259C120.658 34.259 123.599 29.959 123.599 24.6544C123.599 18.7357 120.156 15.0499 115.908 15.0499ZM118.589 24.8671C118.589 27.1353 118.306 28.3403 118.306 28.3403C117.902 30.7381 116.162 30.7415 115.905 30.7287C115.628 30.7398 113.873 30.7149 113.509 28.3403C113.509 28.3403 113.226 27.1353 113.226 24.8671V24.4891C113.226 22.2209 113.509 21.0159 113.509 21.0159C113.873 18.6413 115.628 18.6164 115.905 18.6271C116.162 18.6144 117.902 18.6175 118.306 21.0159C118.306 21.0159 118.589 22.2209 118.589 24.4891V24.8671ZM106.29 18.5347V16.0793C106.29 15.9088 106.222 15.7453 106.102 15.6247C105.981 15.5042 105.817 15.4364 105.647 15.4363H94.6687C94.4981 15.4363 94.3346 15.5041 94.214 15.6246C94.0934 15.7452 94.0257 15.9088 94.0257 16.0793V18.5157C94.0257 18.6862 94.0935 18.8498 94.2141 18.9703C94.3347 19.0909 94.4982 19.1587 94.6687 19.1588H100.395L93.6171 28.9916C93.6171 28.9916 93.35 29.3902 93.3588 29.8305V32.8215C93.3588 32.8215 93.3146 33.847 94.4776 33.2519C94.4776 33.2519 96.5434 32.0038 100.007 32.0038C100.007 32.0038 103.428 31.9613 105.709 33.3593C105.709 33.3593 106.655 33.7897 106.655 32.8433V30.2399C106.655 30.2399 106.741 29.551 105.838 29.1209C105.838 29.1209 103.213 27.6794 99.7705 27.9159L106.29 18.5347ZM47.1055 30.8444L46.0658 29.2618C45.735 28.6709 45.7588 28.0091 45.7588 28.0091V20.7085C45.9006 14.4 38.9067 14.9435 38.9067 14.9435C32.6895 14.9435 31.7712 19.782 31.7712 19.782C31.512 20.7547 32.2656 20.7783 32.2656 20.7783L35.3036 21.0865C35.3036 21.0865 35.8217 21.205 36.0102 20.5883C36.0102 20.5883 36.4103 18.4774 38.6476 18.4774C41.082 18.4774 41.0567 20.5668 41.0567 20.5668V22.3159C36.1971 22.4783 33.945 23.8274 33.945 23.8274C30.9444 25.5285 31.1332 28.9074 31.1332 28.9074C31.1332 34.4124 36.3785 34.1759 36.3785 34.1759C39.7335 34.1759 41.7182 31.7188 41.7182 31.7188C42.3088 32.7588 43.3959 33.7506 43.3959 33.7506C43.9397 34.3403 44.5064 33.8453 44.5064 33.8453L46.9638 31.7427C47.507 31.3406 47.1055 30.8444 47.1055 30.8444ZM38.0159 30.7764C36.4378 30.7764 35.8511 29.2082 36.1131 27.6669C36.3754 26.1256 37.7375 24.9144 41.057 24.9499V25.8869C41.1747 29.9805 39.3295 30.7764 38.0159 30.7764ZM91.2414 30.8444L90.202 29.2618C89.8711 28.6709 89.8946 28.0091 89.8946 28.0091V20.7085C90.0364 14.4 83.0426 14.9435 83.0426 14.9435C76.8254 14.9435 75.907 19.782 75.907 19.782C75.6479 20.7547 76.4015 20.7783 76.4015 20.7783L79.4395 21.0865C79.4395 21.0865 79.9575 21.205 80.146 20.5883C80.146 20.5883 80.5461 18.4774 82.7834 18.4774C85.2178 18.4774 85.1926 20.5668 85.1926 20.5668V22.3159C80.3332 22.4783 78.0808 23.8274 78.0808 23.8274C75.0802 25.5285 75.2691 28.9074 75.2691 28.9074C75.2691 34.4124 80.5144 34.1759 80.5144 34.1759C83.8694 34.1759 85.8541 31.7188 85.8541 31.7188C86.4449 32.7588 87.5314 33.7506 87.5314 33.7506C88.0752 34.3403 88.6423 33.8453 88.6423 33.8453L91.0993 31.7427C91.6429 31.3406 91.2414 30.8444 91.2414 30.8444ZM82.1517 30.7764C80.5736 30.7764 79.987 29.2082 80.249 27.6669C80.5112 26.1256 81.8733 24.9144 85.1926 24.9499V25.8869C85.3105 29.9805 83.4656 30.7764 82.1517 30.7764Z" fill="#A5ACB5"/>
<path d="M99.6028 44.6631C99.6028 44.6631 99.325 45.1465 99.6663 45.2545C99.6663 45.2545 100.052 45.4051 100.533 44.9588C100.533 44.9588 104.04 41.8953 104.124 36.3177C104.124 36.3177 104.15 35.621 103.87 35.4305C103.87 35.4305 102.772 34.4586 98.8211 34.7543C98.8211 34.7543 95.3774 34.9868 93.4973 36.6559C93.4973 36.6559 93.3283 36.8036 93.3283 36.9936C93.3283 36.9936 93.2878 37.4039 94.3213 37.2261C94.3213 37.2261 97.7647 36.7399 99.814 36.9936C99.814 36.9936 100.871 37.1203 101.166 37.4799C101.166 37.4799 101.652 37.8813 101.399 39.2119C101.399 39.2125 100.701 42.5928 99.6028 44.6631Z" fill="#A5ACB5"/>
<path d="M98.9089 39.312C98.9089 39.312 99.4232 39.9783 98.5933 40.553C98.5933 40.553 89.7282 47.6441 74.8429 47.6441C74.8429 47.6441 59.5204 48.4 46.7261 36.7753C46.7261 36.7753 46.2775 36.3815 46.556 36.0154C46.556 36.0154 46.8049 35.6786 47.4494 36.0449C47.4494 36.0449 59.4849 43.5445 75.2917 43.5445C75.2917 43.5445 86.2785 43.9698 97.5488 39.1498C97.5488 39.1498 98.4467 38.6846 98.9089 39.312Z" fill="#A5ACB5"/>
</g>
<defs>
<clipPath id="clip0_240_381">
<rect width="113.032" height="34" fill="white" transform="translate(28.9004 14.4)"/>
</clipPath>
</defs>
</svg>
