<svg width="16" height="16" viewBox="0 0 16 16" fill="none" xmlns="http://www.w3.org/2000/svg">
<path d="M4.5125 3.47913C7.00481 3.47913 9.025 5.50334 9.025 8.00007C9.025 10.4969 7.00462 12.5209 4.5125 12.5209C2.0205 12.5209 0 10.4969 0 8.00007C0 5.5034 2.02031 3.47913 4.5125 3.47913ZM11.7188 3.74393C12.9649 3.74393 13.9751 5.6493 13.9751 8.00007H13.9753C13.9753 10.3503 12.9651 12.2562 11.719 12.2562C10.4729 12.2562 9.46269 10.3503 9.46269 8.00007C9.46269 5.64992 10.4727 3.74393 11.7188 3.74393H11.7188ZM15.2064 4.18728C15.6446 4.18728 16 5.89432 16 8.00013C16 10.1052 15.6447 11.813 15.2064 11.813C14.7681 11.813 14.4131 10.1057 14.4131 8.00013C14.4131 5.89445 14.7683 4.18728 15.2064 4.18728Z" fill="#1777E5"/>
</svg>
