<svg width="16" height="16" viewBox="0 0 16 16" fill="none" xmlns="http://www.w3.org/2000/svg">
<path d="M7.99707 0.108948C12.3531 0.109017 15.8848 3.64059 15.8848 7.99664C15.8847 12.0053 12.8933 15.3126 9.02148 15.815V9.72516H10.7393L10.9668 7.58063H9.02148L9.02441 6.50739C9.02444 5.94845 9.07798 5.64904 9.88086 5.64899H10.9551V3.50446H9.2373C7.17395 3.50446 6.4474 4.54437 6.44727 6.29352V7.5816H5.16113V9.72614H6.44727V15.731C6.57187 15.7558 6.69759 15.7775 6.82422 15.7964C3.0244 15.23 0.109438 11.9541 0.109375 7.99664C0.109375 3.64054 3.64097 0.108948 7.99707 0.108948Z" fill="#1777E5"/>
</svg>
